<?xml version="1.0" encoding="UTF-8" standalone="no"?>
<svg
   version="1.1"
   width="256"
   height="256"
   viewBox="0 0 256 256"
   xml:space="preserve"
   id="svg10"
   sodipodi:docname="mic-passive.svg"
   inkscape:version="1.2 (dc2aedaf03, 2022-05-15)"
   xmlns:inkscape="http://www.inkscape.org/namespaces/inkscape"
   xmlns:sodipodi="http://sodipodi.sourceforge.net/DTD/sodipodi-0.dtd"
   xmlns="http://www.w3.org/2000/svg"
   xmlns:svg="http://www.w3.org/2000/svg"><sodipodi:namedview
   id="namedview12"
   pagecolor="#ffffff"
   bordercolor="#666666"
   borderopacity="1.0"
   inkscape:showpageshadow="2"
   inkscape:pageopacity="0.0"
   inkscape:pagecheckerboard="0"
   inkscape:deskcolor="#d1d1d1"
   showgrid="false"
   inkscape:zoom="3.8984375"
   inkscape:cx="128.12826"
   inkscape:cy="128.12826"
   inkscape:window-width="2560"
   inkscape:window-height="1361"
   inkscape:window-x="1991"
   inkscape:window-y="-9"
   inkscape:window-maximized="1"
   inkscape:current-layer="svg10" />

<defs
   id="defs2">

	
	
</defs>
<path
   d="m 128,11.380284 c -22.4173,0 -40.658288,18.238343 -40.658288,40.65829 v 76.770206 c 0,22.41995 18.238338,40.65829 40.658288,40.65829 22.41995,0 40.65829,-18.23834 40.65829,-40.65829 V 52.038574 c 0,-22.419947 -18.24099,-40.65829 -40.65829,-40.65829 z"
   style="fill:none;fill-rule:nonzero;stroke:#000000;stroke-width:10;stroke-linecap:butt;stroke-linejoin:miter;stroke-miterlimit:10;stroke-dasharray:none;stroke-opacity:1"
   stroke-linecap="round"
   id="path4" /><path
   d="m 195.98504,109.06331 c -3.10224,0 -5.62,2.51776 -5.62,5.62 v 18.27905 c 0,34.46746 -28.04099,62.50564 -62.50845,62.50564 -34.467457,0 -62.508447,-28.04099 -62.508447,-62.50564 v -18.27905 c 0,-3.10224 -2.51776,-5.62 -5.62,-5.62 -3.10224,0 -5.62,2.51776 -5.62,5.62 v 18.27905 c 0,38.76957 30.08105,70.62654 68.128447,73.5096 v 36.59463 H 96.592533 c -3.10224,0 -5.62,2.51776 -5.62,5.62 0,3.10224 2.51776,5.62 5.62,5.62 h 62.528117 c 3.10224,0 5.62,-2.51776 5.62,-5.62 0,-3.10224 -2.51776,-5.62 -5.62,-5.62 h -25.64406 v -36.59182 c 38.0474,-2.88306 68.12845,-34.74003 68.12845,-73.5096 v -18.27905 c 0,-3.10505 -2.51495,-5.62281 -5.62,-5.62281 z"
   style="fill:#000000;fill-rule:nonzero;stroke:none;stroke-width:2.81;stroke-linecap:butt;stroke-linejoin:miter;stroke-miterlimit:10;stroke-dasharray:none"
   stroke-linecap="round"
   id="path6" />
</svg>
