<?xml version="1.0" encoding="UTF-8" standalone="no"?>
<svg
   version="1.1"
   width="256"
   height="256"
   viewBox="0 0 256 256"
   xml:space="preserve"
   id="svg4060"
   sodipodi:docname="mic-recog2.svg"
   inkscape:version="1.2 (dc2aedaf03, 2022-05-15)"
   xmlns:inkscape="http://www.inkscape.org/namespaces/inkscape"
   xmlns:sodipodi="http://sodipodi.sourceforge.net/DTD/sodipodi-0.dtd"
   xmlns="http://www.w3.org/2000/svg"
   xmlns:svg="http://www.w3.org/2000/svg"><sodipodi:namedview
   id="namedview4062"
   pagecolor="#ffffff"
   bordercolor="#666666"
   borderopacity="1.0"
   inkscape:showpageshadow="2"
   inkscape:pageopacity="0.0"
   inkscape:pagecheckerboard="0"
   inkscape:deskcolor="#d1d1d1"
   showgrid="false"
   inkscape:zoom="3.8984375"
   inkscape:cx="120.43287"
   inkscape:cy="128.38477"
   inkscape:window-width="2560"
   inkscape:window-height="1361"
   inkscape:window-x="1991"
   inkscape:window-y="-9"
   inkscape:window-maximized="1"
   inkscape:current-layer="svg4060" />

<defs
   id="defs4052">
</defs>
<g
   style="stroke: none; stroke-width: 0; stroke-dasharray: none; stroke-linecap: butt; stroke-linejoin: miter; stroke-miterlimit: 10; fill: none; fill-rule: nonzero; opacity: 1;"
   transform="translate(1.4065934065934016 1.4065934065934016) scale(2.81 2.81)"
   id="g4058">
	<path
   d="M 45 0 c -8.481 0 -15.382 6.9 -15.382 15.382 v 29.044 c 0 8.482 6.9 15.382 15.382 15.382 s 15.382 -6.9 15.382 -15.382 V 15.382 C 60.382 6.9 53.481 0 45 0 z"
   style="stroke: none; stroke-width: 1; stroke-dasharray: none; stroke-linecap: butt; stroke-linejoin: miter; stroke-miterlimit: 10; fill: rgb(0,0,0); fill-rule: nonzero; opacity: 1;"
   transform=" matrix(1 0 0 1 0 0) "
   stroke-linecap="round"
   id="path4054" />
	<path
   d="M 69.245 38.312 c -1.104 0 -2 0.896 -2 2 v 6.505 c 0 12.266 -9.979 22.244 -22.245 22.244 s -22.245 -9.979 -22.245 -22.244 v -6.505 c 0 -1.104 -0.896 -2 -2 -2 s -2 0.896 -2 2 v 6.505 c 0 13.797 10.705 25.134 24.245 26.16 V 86 h -9.126 c -1.104 0 -2 0.896 -2 2 s 0.896 2 2 2 h 22.252 c 1.104 0 2 -0.896 2 -2 s -0.896 -2 -2 -2 H 47 V 72.978 c 13.54 -1.026 24.245 -12.363 24.245 -26.16 v -6.505 C 71.245 39.208 70.35 38.312 69.245 38.312 z"
   style="stroke: none; stroke-width: 1; stroke-dasharray: none; stroke-linecap: butt; stroke-linejoin: miter; stroke-miterlimit: 10; fill: rgb(0,0,0); fill-rule: nonzero; opacity: 1;"
   transform=" matrix(1 0 0 1 0 0) "
   stroke-linecap="round"
   id="path4056" />
</g>
<path
   id="path2492"
   style="fill:none;stroke:#000000;stroke-width:10;stroke-linecap:round;stroke-linejoin:round;stroke-dasharray:none;stroke-opacity:1"
   d="m 70.341248,35.256603 c -12.10422,11.681496 -12.54527,30.898729 -0.9871,43.009718"
   sodipodi:nodetypes="cc" /><path
   id="path4920"
   style="fill:none;stroke:#000000;stroke-width:10;stroke-linecap:round;stroke-linejoin:round;stroke-dasharray:none;stroke-opacity:1"
   d="M 51.688545,22.457025 C 32.379958,41.091285 31.676397,71.746513 50.113929,91.065899"
   sodipodi:nodetypes="cc" /><path
   id="path4931"
   style="fill:none;stroke:#000000;stroke-width:10;stroke-linecap:round;stroke-linejoin:round;stroke-dasharray:none;stroke-opacity:1"
   d="m 184.52009,35.256603 c 12.10422,11.681496 12.54527,30.898729 0.9871,43.009718"
   sodipodi:nodetypes="cc" /><path
   id="path4933"
   style="fill:none;stroke:#000000;stroke-width:10;stroke-linecap:round;stroke-linejoin:round;stroke-dasharray:none;stroke-opacity:1"
   d="m 203.17279,22.457025 c 19.30859,18.63426 20.01215,49.289488 1.57462,68.608874"
   sodipodi:nodetypes="cc" /></svg>
