<svg id="Icons" xmlns="http://www.w3.org/2000/svg" viewBox="0 0 66 66"><defs><style>.cls-1{fill:#416894;}.cls-2{fill:#4c7aae;}.cls-3{opacity:0.15;}.cls-4{fill:#fffcf2;}.cls-5{fill:#edc03d;}</style></defs><title>microphone</title><g id="Microphone"><g id="Circle_Shadow" data-name="Circle Shadow"><circle class="cls-1" cx="33" cy="34" r="31"/></g><g id="Circle"><circle class="cls-2" cx="33" cy="32" r="31"/></g><path id="Long_Shadow" data-name="Long Shadow" class="cls-3" d="M40.64,62A31.06,31.06,0,0,0,62.13,42.63L37.23,17.73,33,36.61l-8.31-8.31L24,33.59l1.93,5.48,6.8,6.8L26.29,47.7Z"/><g id="Stand"><path class="cls-4" d="M43,32V29a1,1,0,0,0-2,0v3a8,8,0,0,1-16,0V29a1,1,0,0,0-2,0v3a10,10,0,0,0,9,9.95v2.38l-5.33,1.73h0A1,1,0,0,0,27,48H39a1,1,0,0,0,.39-1.92h0L34,44.33V41.95A10,10,0,0,0,43,32Z"/></g><g id="Mic"><path class="cls-5" d="M33,16a6,6,0,0,0-6,6V32a6,6,0,0,0,12,0V22A6,6,0,0,0,33,16Z"/></g></g></svg>